<svg t="1651124253481" class="icon" viewBox="0 0 1024 1024" version="1.1" xmlns="http://www.w3.org/2000/svg" p-id="1066" width="200" height="200"><path d="M775.7824 83.968h112.8448c59.7504 0 108.1856 50.8416 108.1856 113.5616V878.592c0 62.72-48.4352 113.5616-108.1856 113.5616H131.3792c-59.8016 0-108.2368-50.8416-108.2368-113.5616V197.5296c0-62.72 48.4352-113.5616 108.1856-113.5616H244.224a88.6784 88.6784 0 0 0 10.24 77.5168c15.1552 22.5792 39.936 36.0448 66.2528 36.0448h378.624c26.368 0 51.0464-13.4656 66.2528-36.0448a88.6784 88.6784 0 0 0 10.24-77.568z m-108.6976 559.104H227.9936c-19.0976 0-37.1712 11.0592-46.7456 28.4672-4.5056 8.448-7.0144 18.432-7.0144 28.4672 0 31.6928 24.1152 56.9856 54.272 56.9856h439.552c19.0976 0 37.1712-11.0592 46.7456-28.4672 9.5232-17.92 9.5232-39.5776-1.024-56.9856a54.016 54.016 0 0 0-46.6944-28.5184z m171.6736-374.1696a52.6848 52.6848 0 0 0-40.1408 12.288L598.528 451.584a57.1904 57.1904 0 0 0-17.7664 27.2384l-24.8832 82.7904 82.2784-7.9872c10.6496-1.5872 21.3504-5.888 29.44-12.8l200.0896-170.3936c11.1616-9.1136 18.2784-23.552 19.8144-38.5024 1.536-15.4624-3.072-30.4128-12.1856-42.1888a53.1456 53.1456 0 0 0-36.5568-20.8384zM437.1456 415.1296H226.6112c-18.5344 0-36.1472 11.0592-45.4144 28.4672-9.2672 17.92-9.2672 39.5776 0 56.9856 9.2672 17.408 26.368 28.5184 45.4144 28.5184h210.5344c18.5344 0 36.1472-11.1104 45.4144-28.5184 9.2672-17.92 9.2672-39.5776 0-56.9856a51.8144 51.8144 0 0 0-45.4144-28.4672z" p-id="1067" fill="#ffffff"></path><path d="M394.24 134.2976h233.728c29.3888-2.5088 51.456-28.6208 49.7664-59.0848a57.344 57.344 0 0 0-14.1312-40.3968 54.3232 54.3232 0 0 0-37.888-18.0224H393.5744C363.6736 18.6368 340.992 44.7488 342.1696 75.776c-1.1776 30.5152 22.016 57.2416 52.0192 58.4704z" p-id="1068" fill="#ffffff"></path></svg>